<?xml version="1.0" encoding="UTF-8" standalone="no"?>
<!DOCTYPE svg PUBLIC "-//W3C//DTD SVG 1.1//EN"
 "http://www.w3.org/Graphics/SVG/1.1/DTD/svg11.dtd">
<!-- Generated by graphviz version 2.47.0 (20210316.0004)
 -->
<!-- Title: dependencies Pages: 1 -->
<svg width="504pt" height="284pt"
 viewBox="0.00 0.00 504.00 284.00" xmlns="http://www.w3.org/2000/svg" xmlns:xlink="http://www.w3.org/1999/xlink">
<g id="graph0" class="graph" transform="scale(1 1) rotate(0) translate(4 280)">
<title>dependencies</title>
<polygon fill="white" stroke="transparent" points="-4,4 -4,-280 500,-280 500,4 -4,4"/>
<text text-anchor="start" x="227.01" y="-42.4" font-family="Times-12" font-weight="bold" font-size="14.00">Legend</text>
<polygon fill="#ffffb3" stroke="transparent" points="14,-10 14,-30 34,-30 34,-10 14,-10"/>
<text text-anchor="start" x="37.63" y="-15.4" font-family="Times-12" font-size="14.00"> &#160;Declarations</text>
<polygon fill="#8dd3c7" stroke="transparent" points="127,-10 127,-30 147,-30 147,-10 127,-10"/>
<text text-anchor="start" x="150.73" y="-15.4" font-family="Times-12" font-size="14.00"> &#160;Module</text>
<polygon fill="#80b1d3" stroke="transparent" points="213,-10 213,-30 233,-30 233,-10 213,-10"/>
<text text-anchor="start" x="236.78" y="-15.4" font-family="Times-12" font-size="14.00"> &#160;Bootstrap</text>
<polygon fill="#fdb462" stroke="transparent" points="310,-10 310,-30 330,-30 330,-10 310,-10"/>
<text text-anchor="start" x="333.67" y="-15.4" font-family="Times-12" font-size="14.00"> &#160;Providers</text>
<polygon fill="#fb8072" stroke="transparent" points="406,-10 406,-30 426,-30 426,-10 406,-10"/>
<text text-anchor="start" x="429.73" y="-15.4" font-family="Times-12" font-size="14.00"> &#160;Exports</text>
<g id="clust1" class="cluster">
<title>cluster_ComponentsModule</title>
<polygon fill="none" stroke="black" stroke-dasharray="1,5" points="92,-70 92,-268 404,-268 404,-70 92,-70"/>
</g>
<g id="clust6" class="cluster">
<title>cluster_ComponentsModule_exports</title>
<polygon fill="none" stroke="black" points="100,-208 100,-260 396,-260 396,-208 100,-208"/>
</g>
<g id="clust2" class="cluster">
<title>cluster_ComponentsModule_declarations</title>
<polygon fill="none" stroke="black" points="103,-78 103,-130 393,-130 393,-78 103,-78"/>
</g>
<!-- EquipmentComponent -->
<g id="node1" class="node">
<title>EquipmentComponent</title>
<polygon fill="#ffffb3" stroke="black" points="385.27,-122 242.73,-122 242.73,-86 385.27,-86 385.27,-122"/>
<text text-anchor="middle" x="314" y="-99.8" font-family="Times,serif" font-size="14.00">EquipmentComponent</text>
</g>
<!-- ComponentsModule -->
<g id="node3" class="node">
<title>ComponentsModule</title>
<polygon fill="#8dd3c7" stroke="black" points="233.33,-187 230.33,-191 209.33,-191 206.33,-187 102.67,-187 102.67,-151 233.33,-151 233.33,-187"/>
<text text-anchor="middle" x="168" y="-164.8" font-family="Times,serif" font-size="14.00">ComponentsModule</text>
</g>
<!-- EquipmentComponent&#45;&gt;ComponentsModule -->
<g id="edge1" class="edge">
<title>EquipmentComponent&#45;&gt;ComponentsModule</title>
<path fill="none" stroke="black" d="M242.56,-104C234.37,-104 228.88,-104 228.88,-104 228.88,-104 228.88,-140.89 228.88,-140.89"/>
<polygon fill="black" stroke="black" points="225.38,-140.89 228.88,-150.89 232.38,-140.89 225.38,-140.89"/>
</g>
<!-- TableComponent -->
<g id="node2" class="node">
<title>TableComponent</title>
<polygon fill="#ffffb3" stroke="black" points="224.7,-122 111.3,-122 111.3,-86 224.7,-86 224.7,-122"/>
<text text-anchor="middle" x="168" y="-99.8" font-family="Times,serif" font-size="14.00">TableComponent</text>
</g>
<!-- TableComponent&#45;&gt;ComponentsModule -->
<g id="edge2" class="edge">
<title>TableComponent&#45;&gt;ComponentsModule</title>
<path fill="none" stroke="black" d="M168,-122.11C168,-122.11 168,-140.99 168,-140.99"/>
<polygon fill="black" stroke="black" points="164.5,-140.99 168,-150.99 171.5,-140.99 164.5,-140.99"/>
</g>
<!-- EquipmentComponent  -->
<g id="node4" class="node">
<title>EquipmentComponent </title>
<polygon fill="#fb8072" stroke="black" points="388.27,-252 241.73,-252 241.73,-216 388.27,-216 388.27,-252"/>
<text text-anchor="middle" x="315" y="-229.8" font-family="Times,serif" font-size="14.00">EquipmentComponent </text>
</g>
<!-- ComponentsModule&#45;&gt;EquipmentComponent  -->
<g id="edge3" class="edge">
<title>ComponentsModule&#45;&gt;EquipmentComponent </title>
<path fill="none" stroke="black" stroke-dasharray="5,2" d="M228.76,-187.11C228.76,-206.34 228.76,-234 228.76,-234 228.76,-234 231.86,-234 231.86,-234"/>
<polygon fill="black" stroke="black" points="231.86,-237.5 241.86,-234 231.86,-230.5 231.86,-237.5"/>
</g>
<!-- TableComponent  -->
<g id="node5" class="node">
<title>TableComponent </title>
<polygon fill="#fb8072" stroke="black" points="224.21,-252 107.79,-252 107.79,-216 224.21,-216 224.21,-252"/>
<text text-anchor="middle" x="166" y="-229.8" font-family="Times,serif" font-size="14.00">TableComponent </text>
</g>
<!-- ComponentsModule&#45;&gt;TableComponent  -->
<g id="edge4" class="edge">
<title>ComponentsModule&#45;&gt;TableComponent </title>
<path fill="none" stroke="black" stroke-dasharray="5,2" d="M166,-187.11C166,-187.11 166,-205.99 166,-205.99"/>
<polygon fill="black" stroke="black" points="162.5,-205.99 166,-215.99 169.5,-205.99 162.5,-205.99"/>
</g>
</g>
</svg>
